/* XPM */
static char *_638112143533[] = {
/* columns rows colors chars-per-pixel */
"32 32 2 1 ",
"  c #081145",
". c white",
/* pixels */
"                                ",
"                                ",
"    ..                    ..    ",
"    ..                    ..    ",
"                                ",
"                                ",
"              ..                ",
"              ..                ",
"                        ..      ",
"                        ..      ",
"      ..                        ",
"      ..                        ",
"                    ..          ",
"                    ..          ",
"                                ",
"                                ",
"          ..                ..  ",
"          ..                ..  ",
"                                ",
"                                ",
"  ..            ..              ",
"  ..            ..              ",
"                        ..      ",
"                        ..      ",
"                                ",
"                                ",
"        ..                      ",
"        ..                      ",
"                  ..            ",
"                  ..            ",
"                                ",
"                                "
};