/* XPM */
static char *_638113354969[] = {
/* columns rows colors chars-per-pixel */
"32 32 5 1 ",
"  c #081145",
". c gray38",
"X c #EEEEEE",
"o c white",
"O c None",
/* pixels */
"                                ",
"                                ",
"    oo                    oo    ",
"    oo                    oo    ",
"                                ",
"                                ",
"            ........            ",
"            ........            ",
"          ..XX..XXXX..          ",
"          ..XX..XXXX..          ",
"        ..XXXX..XXXXXX..        ",
"        ..XXXX..XXXXXX..        ",
"      ..XXXX..XXXX..XXXX..      ",
"      ..XXXX..XXXX..XXXX..      ",
"      ..XX..XXXXXXXXXXXX..      ",
"      ..XX..XXXXXXXXXXXX..      ",
"      ....XXXX..XXXX..XX..  oo  ",
"      ....XXXX..XXXX..XX..  oo  ",
"      ..XXXXXXXXXXXXXXXX..      ",
"      ..XXXXXXXXXXXXXXXX..      ",
"  oo    ..XXXXXX....XX..        ",
"  oo    ..XXXXXX....XX..        ",
"          ..XX..XXXX..  oo      ",
"          ..XX..XXXX..  oo      ",
"            ........            ",
"            ........            ",
"        OO                      ",
"        OO                      ",
"                  oo            ",
"                  oo            ",
"                                ",
"                                "
};