/* XPM */
static char *_638114930140[] = {
/* columns rows colors chars-per-pixel */
"32 32 5 1 ",
"  c #081145",
". c gray38",
"X c #F50057",
"o c #FF4081",
"O c white",
/* pixels */
"                                ",
"                                ",
"    OO                    OO    ",
"    OO                    OO    ",
"                                ",
"                                ",
"              OO                ",
"              OO                ",
"          ............  OO      ",
"          ............  OO      ",
"      OO....XXXXXXXX....        ",
"      OO....XXXXXXXX....        ",
"        ..XXXXXXooooXX..        ",
"        ..XXXXXXooooXX..        ",
"        ....XXXXXXooXX..        ",
"        ....XXXXXXooXX..        ",
"        ..XX..XXXXXXXX..    OO  ",
"        ..XX..XXXXXXXX..    OO  ",
"        ..XXXX..XXXXXX..        ",
"        ..XXXX..XXXXXX..        ",
"  OO    ....XXXX..XX....        ",
"  OO    ....XXXX..XX....        ",
"          ............  OO      ",
"          ............  OO      ",
"                                ",
"                                ",
"        OO                      ",
"        OO                      ",
"                  OO            ",
"                  OO            ",
"                                ",
"                                "
};