/* XPM */
static char *_638114141360[] = {
/* columns rows colors chars-per-pixel */
"32 32 8 1 ",
"  c #081145",
". c #546E7A",
"X c gray38",
"o c #E65100",
"O c #FF6F00",
"+ c #FF4081",
"@ c #26C6DA",
"# c white",
/* pixels */
"                                ",
"                                ",
"      XXXXXXXXXXXXXXXXXXXX      ",
"      XXXXXXXXXXXXXXXXXXXX      ",
"    XX++++++++++++++++++++XX    ",
"    XX++++++++++++++++++++XX    ",
"  XX++++++++++##++++++++++++XX  ",
"  XX++++++++++##++++++++++++XX  ",
"  XX++++++++++++++++++++##++XX  ",
"  XX++++++++++++++++++++##++XX  ",
"  XX++##++++++++++++++++++++XX  ",
"  XX++##++++++++++++++++++++XX  ",
"  XX++++++++++++++++##++++++XX  ",
"  XX++++++++++++++++##++++++XX  ",
"  XX++++++++++++++....++++++XX  ",
"  XX++++++++++++++....++++++XX  ",
"  XX++++++++++++..@@....++++XX  ",
"  XX++++++++++++..@@....++++XX  ",
"  XX++++OOOOOOOO........++++XX  ",
"  XX++++OOOOOOOO........++++XX  ",
"  XXOOOOOOOOOO............OOXX  ",
"  XXOOOOOOOOOO............OOXX  ",
"  XXOOOOooOOOOOOOOOOOOOOOOOOXX  ",
"  XXOOOOooOOOOOOOOOOOOOOOOOOXX  ",
"  XXOOOOOOooOOOOOOOOOOOOOOOOXX  ",
"  XXOOOOOOooOOOOOOOOOOOOOOOOXX  ",
"    XXOOOOOOOOOOOOOOOOOOOOXX    ",
"    XXOOOOOOOOOOOOOOOOOOOOXX    ",
"      XXXXXXXXXXXXXXXXXXXX      ",
"      XXXXXXXXXXXXXXXXXXXX      ",
"                                ",
"                                "
};