/* XPM */
static char *_638111436440[] = {
/* columns rows colors chars-per-pixel */
"32 32 6 1 ",
"  c #081145",
". c gray38",
"X c gray62",
"o c #82B1FF",
"O c #BBDEFB",
"+ c white",
/* pixels */
"                                ",
"                                ",
"    ++                    ++    ",
"    ++                    ++    ",
"                                ",
"                                ",
"              ++                ",
"              ++                ",
"          ............  ++      ",
"          ............  ++      ",
"      ....ooooooooOOOO....      ",
"      ....ooooooooOOOO....      ",
"    ....oooooooooooooooo....    ",
"    ....oooooooooooooooo....    ",
"  ....oooooooooooooooooooo....  ",
"  ....oooooooooooooooooooo....  ",
"  ..XX....oooooooooooo....XX..  ",
"  ..XX....oooooooooooo....XX..  ",
"    ..XXXX............XXXX..    ",
"    ..XXXX............XXXX..    ",
"  ++  ..XXXXXXXXXXXXXXXX..      ",
"  ++  ..XXXXXXXXXXXXXXXX..      ",
"        ................        ",
"        ................        ",
"                                ",
"                                ",
"        ++                      ",
"        ++                      ",
"                  ++            ",
"                  ++            ",
"                                ",
"                                "
};