/* XPM */
static char *result[] = {
/* columns rows colors chars-per-pixel */
"96 96 2 1 ",
"  c black",
". c #A0DE85",
/* pixels */
"                                                                                                ",
"                                                                                                ",
"                                                                                                ",
"                                                                                                ",
"                                                                                                ",
"                                                                                                ",
"                                                                                                ",
"                                                                                                ",
"                                                                                                ",
"               ......      ......         ............         ......      ......               ",
"               ......      ......         ............         ......      ......               ",
"               ......      ......         ............         ......      ......               ",
"               ......      ......      ..................      ......      ......               ",
"               ......      ......      ..................      ......      ......               ",
"               ......      ......      ..................      ......      ......               ",
"               ......      ......      ......      ......      ......      ......               ",
"               ......      ......      ......      ......      ......      ......               ",
"               ......      ......      ......      ......      ......      ......               ",
"               ......      ......      ......      ......      ......      ......               ",
"               ......      ......      ......      ......      ......      ......               ",
"               ......      ......      ......      ......      ......      ......               ",
"               ......      ......      ......      ......      ......      ......               ",
"               ......      ......      ......      ......      ......      ......               ",
"               ......      ......      ......      ......      ......      ......               ",
"               ..................      ......      ......      ......      ......               ",
"               ..................      ......      ......      ......      ......               ",
"               ..................      ......      ......      ......      ......               ",
"                  ...............      ......      ......      ......      ......               ",
"                  ...............      ......      ......      ......      ......               ",
"                  ...............      ......      ......      ......      ......               ",
"                           ......      ......      ......      ......   .........               ",
"                           ......      ......      ......      ......   .........               ",
"                           ......      ......      ......      ......   .........               ",
"                  ...............      ..................      ..................               ",
"                  ...............      ..................      ..................               ",
"                  ...............      ..................      ..................               ",
"                  ............            ............            .........   ...               ",
"                  ............            ............            .........   ...               ",
"                  ............            ............            .........   ...               ",
"                                                                                                ",
"                                                                                                ",
"                                                                                                ",
"                                                                                                ",
"                                                                                                ",
"                                                                                                ",
"                  ......         ......      ......      ......         ......                  ",
"                  ......         ......      ......      ......         ......                  ",
"                  ......         ......      ......      ......         ......                  ",
"                  ......         ......      ......      ......         ......                  ",
"                  ......         ......      ......      ......         ......                  ",
"                  ......         ......      ......      ......         ......                  ",
"                  ......         ......                  .........      ......                  ",
"                  ......         ......                  .........      ......                  ",
"                  ......         ......                  .........      ......                  ",
"                  ......         ......      ......      .........      ......                  ",
"                  ......         ......      ......      .........      ......                  ",
"                  ......         ......      ......      .........      ......                  ",
"                  ......   ...   ......      ......      ............   ......                  ",
"                  ......   ...   ......      ......      ............   ......                  ",
"                  ......   ...   ......      ......      ............   ......                  ",
"                  ......   ...   ......      ......      .....................                  ",
"                  ......   ...   ......      ......      .....................                  ",
"                  ......   ...   ......      ......      .....................                  ",
"                  ......   ...   ......      ......      ......      .........                  ",
"                  ......   ...   ......      ......      ......      .........                  ",
"                  ......   ...   ......      ......      ......      .........                  ",
"                  .....................      ......      ......      .........                  ",
"                  .....................      ......      ......      .........                  ",
"                  .....................      ......      ......      .........                  ",
"                  .....................      ......      ......         ......                  ",
"                  .....................      ......      ......         ......                  ",
"                  .....................      ......      ......         ......                  ",
"                     ...............         ......      ......         ......                  ",
"                     ...............         ......      ......         ......                  ",
"                     ...............         ......      ......         ......                  ",
"                                                                                                ",
"                                                                                                ",
"                                                                                                ",
"                                                                                                ",
"                                                                                                ",
"                                                                                                ",
"                                          ...      ...                                          ",
"                                          ...      ...                                          ",
"                                          ...      ...                                          ",
"                                                                                                ",
"                                                                                                ",
"                                                                                                ",
"                                       ...            ...                                       ",
"                                       ...            ...                                       ",
"                                       ...            ...                                       ",
"                                          ............                                          ",
"                                          ............                                          ",
"                                          ............                                          ",
"                                                                                                ",
"                                                                                                ",
"                                                                                                "
};